<svg width="37" height="46" viewBox="0 0 37 46" fill="none" xmlns="http://www.w3.org/2000/svg">
<g clipPath="url(#clip0_520_8349)">
<path d="M5.72491 15.0769C5.72491 15.0769 9.80819 19.7655 12.4855 19.7655C12.4855 19.7655 14.8525 22.8548 16.135 31.1269C16.8809 35.9235 17.2175 40.7758 17.1409 45.6304H0.374023V27.3021C0.374023 27.3021 1.077 16.6461 5.72491 15.0769Z" fill="white" stroke="#142040" strokeLinecap="round" strokeLinejoin="round"/>
<path d="M5.72485 15.0769C5.72485 15.0769 7.59449 14.1527 7.69545 10.9578C7.69545 10.9578 8.54053 -0.445049 18.1654 3.81735C18.1654 3.81735 20.3828 4.99045 19.0067 10.9578L17.6718 15.0014C17.5149 15.4833 17.262 15.9277 16.9286 16.3073C16.5952 16.687 16.1883 16.9938 15.733 17.2089C15.2777 17.4241 14.7836 17.543 14.2811 17.5585C13.7785 17.5739 13.2782 17.4855 12.8108 17.2986C12.0261 16.9779 11.3748 16.3945 10.9662 15.6464C10.5577 14.8984 10.4168 14.0313 10.5672 13.1909L10.9897 10.8107" fill="white"/>
<path d="M5.72485 15.0769C5.72485 15.0769 7.59449 14.1527 7.69545 10.9578C7.69545 10.9578 8.54053 -0.445049 18.1654 3.81735C18.1654 3.81735 20.3828 4.99045 19.0067 10.9578L17.6718 15.0014C17.5149 15.4833 17.262 15.9277 16.9286 16.3073C16.5952 16.687 16.1883 16.9938 15.733 17.2089C15.2777 17.4241 14.7836 17.543 14.2811 17.5585C13.7785 17.5739 13.2782 17.4855 12.8108 17.2986V17.2986C12.0261 16.9779 11.3748 16.3945 10.9662 15.6464C10.5577 14.8984 10.4168 14.0313 10.5672 13.1909L10.9897 10.8107" stroke="#142040" strokeLinecap="round" strokeLinejoin="round"/>
<path d="M16.9239 1.09013C16.9239 1.09013 8.90313 -2.17646 6.58105 5.28086C6.58105 5.28086 5.5378 9.53572 7.60935 11.9536C7.60935 11.9536 9.67717 7.48373 10.0324 9.82616C10.3876 12.1686 11.2402 12.5269 11.6216 11.2482C12.003 9.96951 13.7043 9.36221 15.1103 9.73941C16.5163 10.1166 20.4163 9.81485 20.6295 6.1937C20.8426 2.57254 19.9153 1.76533 16.9239 1.09013Z" fill="#A5D0FD" stroke="#142040" strokeLinecap="round" strokeLinejoin="round"/>
<path d="M36.626 14.1527L33.328 7.099L21.7849 30.3536L25.3372 37.1659L36.626 14.1527Z" fill="#CDC3FB" stroke="#142040" strokeLinecap="round" strokeLinejoin="round"/>
<path d="M12.8295 17.2986C12.8295 17.2986 11.7488 18.7621 11.9283 19.7089L12.8295 17.2986Z" fill="white"/>
<path d="M12.8295 17.2986C12.8295 17.2986 11.7488 18.7621 11.9283 19.7089" stroke="#142040" strokeLinecap="round" strokeLinejoin="round"/>
<path d="M27.0198 26.6871C27.0198 26.6871 29.555 25.2689 30.0635 24.0731C30.5721 22.8774 31.8397 20.2558 32.094 22.4625C32.3482 24.6691 32.1575 26.2081 30.7291 27.1473C29.3007 28.0866 28.1902 28.8523 28.1902 28.8523L27.0198 26.6871Z" fill="white" stroke="#142040" strokeLinecap="round" strokeLinejoin="round"/>
<path d="M6.67835 14.213L4.76758 15.5672C4.76758 15.5672 8.13291 21.2252 10.5036 21.6024L12.4854 19.7692C12.4854 19.7692 7.08593 15.8312 6.67835 14.213Z" fill="white" stroke="#142040" strokeLinecap="round" strokeLinejoin="round"/>
<path d="M12.4853 19.7731L11.7075 20.4898L12.5862 22.4625L13.5585 23.0661L15.6599 32.5452L16.849 31.1344C16.849 31.1344 16.505 23.9713 12.4853 19.7731Z" fill="#A5D0FD" stroke="#142040" strokeLinecap="round" strokeLinejoin="round"/>
<path d="M7.0822 22.4625L15.6563 30.9722L26.216 25.1859L29.0092 30.3536L14.6841 38.1995L4.28149 27.7057" fill="white"/>
<path d="M7.0822 22.4625L15.6563 30.9722L26.216 25.1859L29.0092 30.3536L14.6841 38.1995L4.28149 27.7057" stroke="#142040" strokeLinecap="round" strokeLinejoin="round"/>
<path d="M16.176 8.15136C16.176 8.15136 19.1861 11.98 21.224 8.15136C21.224 8.15136 24.2453 3.81352 19.6573 2.19531" fill="#A5D0FD"/>
<path d="M16.176 8.15136C16.176 8.15136 19.1861 11.98 21.224 8.15136C21.224 8.15136 24.2453 3.81352 19.6573 2.19531" stroke="#142040" strokeLinecap="round" strokeLinejoin="round"/>
<path d="M16.2957 12.4364C16.2957 12.5274 16.2689 12.6164 16.2188 12.6921C16.1687 12.7677 16.0974 12.8267 16.0141 12.8615C15.9307 12.8964 15.839 12.9055 15.7505 12.8877C15.662 12.87 15.5807 12.8261 15.5169 12.7618C15.4531 12.6974 15.4097 12.6154 15.3921 12.5262C15.3745 12.4369 15.3835 12.3444 15.418 12.2603C15.4526 12.1762 15.511 12.1043 15.586 12.0537C15.6611 12.0032 15.7493 11.9762 15.8395 11.9762C15.9605 11.9762 16.0765 12.0247 16.1621 12.111C16.2476 12.1973 16.2957 12.3143 16.2957 12.4364Z" fill="#142040"/>
</g>
<defs>
<clipPath id="clip0_520_8349">
<rect width="37" height="46" fill="white"/>
</clipPath>
</defs>
</svg>
