<svg width="96" height="96" viewBox="0 0 96 96" fill="none" xmlns="http://www.w3.org/2000/svg">
<path d="M76.8431 27.3045L74.8377 26.1378C74.5743 25.9844 74.2834 25.8849 73.9818 25.8448C73.6802 25.8047 73.3737 25.8249 73.0798 25.9042C72.786 25.9835 72.5105 26.1204 72.2691 26.307C72.0278 26.4936 71.8253 26.7263 71.6732 26.9918L65.9986 36.8968V18.8333C65.9967 17.2868 65.3862 15.8042 64.3009 14.7106C63.2156 13.617 61.7441 13.0019 60.2093 13H27.7893C26.2544 13.0019 24.783 13.617 23.6977 14.7106C22.6124 15.8042 22.0018 17.2868 22 18.8333V77.1667C22.0018 78.7132 22.6124 80.1958 23.6977 81.2894C24.783 82.383 26.2544 82.9981 27.7893 83H60.2093C61.7441 82.9981 63.2156 82.383 64.3009 81.2894C65.3862 80.1958 65.9967 78.7132 65.9986 77.1667V50.8992L77.6929 30.4907C77.9979 29.9542 78.0797 29.3179 77.9204 28.7209C77.7612 28.1239 77.3738 27.6146 76.8431 27.3045ZM70.2062 34.2205L72.2117 35.3872L54.4015 66.4707L52.2409 67.9068L52.3961 65.304L70.2062 34.2205ZM35.8943 15.3333H52.1043V16.5C52.1043 16.8094 51.9823 17.1062 51.7652 17.325C51.548 17.5437 51.2535 17.6667 50.9464 17.6667H37.0521C36.7451 17.6667 36.4506 17.5437 36.2334 17.325C36.0163 17.1062 35.8943 16.8094 35.8943 16.5V15.3333ZM63.6829 77.1667C63.6829 78.0949 63.3169 78.9852 62.6655 79.6415C62.0141 80.2979 61.1305 80.6667 60.2093 80.6667H27.7893C26.868 80.6667 25.9845 80.2979 25.3331 79.6415C24.6817 78.9852 24.3157 78.0949 24.3157 77.1667V18.8333C24.3157 17.9051 24.6817 17.0148 25.3331 16.3585C25.9845 15.7021 26.868 15.3333 27.7893 15.3333H33.5786V16.5C33.5786 17.4283 33.9445 18.3185 34.596 18.9749C35.2474 19.6313 36.1309 20 37.0521 20H50.9464C51.8677 20 52.7512 19.6313 53.4026 18.9749C54.054 18.3185 54.42 17.4283 54.42 16.5V15.3333H60.2093C61.1305 15.3333 62.0141 15.7021 62.6655 16.3585C63.3169 17.0148 63.6829 17.9051 63.6829 18.8333V40.9382L50.2517 64.3753C50.1619 64.5325 50.1099 64.7087 50.1 64.8898L49.7886 70.0967C49.7744 70.3134 49.8206 70.5299 49.922 70.7216C50.0234 70.9134 50.1758 71.0728 50.3623 71.1819C50.5487 71.2911 50.7617 71.3456 50.9772 71.3394C51.1927 71.3331 51.4022 71.2664 51.5821 71.1467L55.9032 68.272C56.0537 68.1722 56.179 68.0383 56.2691 67.8812L63.6829 54.9405V77.1667ZM73.3695 33.3665L71.3641 32.1998L73.6798 28.1585L75.6852 29.3252L73.3695 33.3665Z" fill="black"/>
<path d="M39.9468 58.4997H45.1571C46.6926 58.4997 48.1651 57.8851 49.2508 56.7911C50.3365 55.6972 50.9464 54.2134 50.9464 52.6663C50.9464 51.1192 50.3365 49.6355 49.2508 48.5416C48.1651 47.4476 46.6926 46.833 45.1571 46.833H34.7364C33.8152 46.833 32.9317 46.4643 32.2802 45.8079C31.6288 45.1515 31.2629 44.2613 31.2629 43.333C31.2629 42.4047 31.6288 41.5145 32.2802 40.8581C32.9317 40.2018 33.8152 39.833 34.7364 39.833H46.315C48.1575 39.833 49.9245 39.0955 51.2274 37.7828C52.5302 36.47 53.2621 34.6895 53.2621 32.833C53.2621 30.9765 52.5302 29.196 51.2274 27.8833C49.9245 26.5705 48.1575 25.833 46.315 25.833H35.8943V28.1663H46.315C47.5433 28.1663 48.7214 28.658 49.5899 29.5332C50.4585 30.4083 50.9464 31.5953 50.9464 32.833C50.9464 34.0707 50.4585 35.2577 49.5899 36.1328C48.7214 37.008 47.5433 37.4997 46.315 37.4997H34.7364C33.201 37.4997 31.7285 38.1143 30.6428 39.2082C29.5571 40.3022 28.9471 41.7859 28.9471 43.333C28.9471 44.8801 29.5571 46.3638 30.6428 47.4578C31.7285 48.5518 33.201 49.1663 34.7364 49.1663H45.1571C46.0784 49.1663 46.9619 49.5351 47.6133 50.1915C48.2648 50.8478 48.6307 51.7381 48.6307 52.6663C48.6307 53.5946 48.2648 54.4848 47.6133 55.1412C46.9619 55.7976 46.0784 56.1663 45.1571 56.1663H39.9468C37.9508 56.1663 36.0365 56.9653 34.6251 58.3874C33.2136 59.8096 32.4207 61.7384 32.4207 63.7497C32.4207 65.7609 33.2136 67.6898 34.6251 69.1119C36.0365 70.534 37.9508 71.333 39.9468 71.333H47.4729V68.9997H39.9468C38.5649 68.9997 37.2396 68.4465 36.2625 67.462C35.2854 66.4774 34.7364 65.1421 34.7364 63.7497C34.7364 62.3573 35.2854 61.0219 36.2625 60.0374C37.2396 59.0528 38.5649 58.4997 39.9468 58.4997Z" fill="black"/>
<path d="M33.5786 25.833H28.9471V28.1663H33.5786V25.833Z" fill="black"/>
</svg>
