<svg width="34" height="33" viewBox="0 0 34 33" fill="none" xmlns="http://www.w3.org/2000/svg">
<path d="M16.0489 0.927051C16.3483 0.00574017 17.6517 0.00574017 17.9511 0.927051L21.2658 11.1287C21.3996 11.5407 21.7836 11.8197 22.2168 11.8197H32.9434C33.9122 11.8197 34.3149 13.0593 33.5312 13.6287L24.8532 19.9336C24.5027 20.1883 24.3561 20.6396 24.4899 21.0517L27.8046 31.2533C28.104 32.1746 27.0495 32.9407 26.2658 32.3713L17.5878 26.0664C17.2373 25.8117 16.7627 25.8117 16.4122 26.0664L7.73419 32.3713C6.95048 32.9407 5.896 32.1746 6.19535 31.2533L9.51006 21.0517C9.64393 20.6396 9.49728 20.1883 9.14679 19.9336L0.468768 13.6287C-0.314945 13.0593 0.0878303 11.8197 1.05655 11.8197H11.7832C12.2164 11.8197 12.6004 11.5407 12.7342 11.1287L16.0489 0.927051Z" fill="white"/>
<path d="M16.5245 1.08156C16.6741 0.620904 17.3259 0.620904 17.4755 1.08156L20.7902 11.2832C20.9911 11.9012 21.567 12.3197 22.2168 12.3197H32.9434C33.4278 12.3197 33.6292 12.9395 33.2373 13.2242L24.5593 19.5291C24.0336 19.9111 23.8136 20.5881 24.0144 21.2062L27.3291 31.4078C27.4788 31.8685 26.9516 32.2515 26.5597 31.9668L17.8817 25.6619C17.3559 25.2799 16.6441 25.2799 16.1183 25.6619L7.4403 31.9668C7.04844 32.2515 6.5212 31.8685 6.67088 31.4078L9.98559 21.2062C10.1864 20.5881 9.96641 19.9111 9.44068 19.5291L0.762661 13.2242C0.370804 12.9395 0.572192 12.3197 1.05655 12.3197H11.7832C12.433 12.3197 13.009 11.9012 13.2098 11.2832L16.5245 1.08156Z" stroke="black" stroke-opacity="0.4"/>
</svg>
